<?xml version="1.0" encoding="UTF-8" standalone="no"?>
<!-- Created with Inkscape (http://www.inkscape.org/) -->

<svg
   width="367.39502mm"
   height="379.59387mm"
   viewBox="0 0 367.39502 379.59387"
   version="1.1"
   id="svg1"
   xml:space="preserve"
   sodipodi:docname="brisas-logo.svg"
   inkscape:version="1.4.3 (0d15f75042, 2025-12-25)"
   xmlns:inkscape="http://www.inkscape.org/namespaces/inkscape"
   xmlns:sodipodi="http://sodipodi.sourceforge.net/DTD/sodipodi-0.dtd"
   xmlns="http://www.w3.org/2000/svg"
   xmlns:svg="http://www.w3.org/2000/svg"><sodipodi:namedview
     id="namedview1"
     pagecolor="#ffffff"
     bordercolor="#000000"
     borderopacity="0.25"
     inkscape:showpageshadow="2"
     inkscape:pageopacity="0.0"
     inkscape:pagecheckerboard="0"
     inkscape:deskcolor="#d1d1d1"
     inkscape:document-units="mm"
     inkscape:zoom="0.66646401"
     inkscape:cx="1115.5891"
     inkscape:cy="708.96551"
     inkscape:window-width="2560"
     inkscape:window-height="1347"
     inkscape:window-x="0"
     inkscape:window-y="0"
     inkscape:window-maximized="1"
     inkscape:current-layer="layer1" /><defs
     id="defs1" /><g
     inkscape:label="Camada 1"
     inkscape:groupmode="layer"
     id="layer1"
     transform="translate(99.132568,14.206229)"><path
       style="fill:#214423;fill-opacity:1;stroke:none;stroke-opacity:1"
       d="m 89.096451,365.08582 c -4.199854,-1.95602 -3.054212,-9.19194 -7.711845,-11.75648 -3.506344,-2.06168 -3.848071,-9.82804 -7.098634,-9.58943 -6.052899,4.4324 -10.206513,10.98014 -11.257758,18.46775 -6.559565,5.11874 -2.493081,-6.94571 -4.575204,-7.95302 -6.209164,-0.2499 -11.640484,3.45898 -17.259734,4.7625 -2.094161,-3.7888 5.199646,-6.83799 7.964527,-8.91753 6.629878,-2.15627 13.951745,-3.34464 18.002971,-9.73263 6.600069,-5.22216 -5.420857,-0.98353 -8.471291,-1.72809 -10.859078,-0.97443 -19.017607,6.73669 -28.375661,10.59593 -6.330205,1.69971 -13.817207,1.58147 -19.717717,-1.29567 9.360776,-3.3808 20.157818,-3.24186 27.921706,-10.33008 7.98603,-6.18449 19.553373,-4.0552 27.312376,-10.20963 2.784257,-2.75174 5.001311,-11.55446 -0.67572,-5.86271 -7.113928,5.02368 -15.824606,3.72825 -23.882209,4.31232 -6.391116,3.37461 -12.733307,9.61174 -20.706549,6.64975 -9.457134,-2.09256 -16.7176061,12.50254 -25.976895,6.6974 5.07320232,-1.63595 11.5179774,-4.52741 14.287499,-9.51253 -10.6463367,-0.35467 -22.440892,3.52628 -32.236654,-2.94083 -4.478625,-3.15965 -9.964666,-6.49525 -12.865012,-10.869 9.797528,-0.57703 17.917303,10.21716 28.398014,8.13918 9.7060349,-0.50263 19.877702,-3.14777 29.006776,1.78658 5.626205,1.00488 10.51281,-1.02957 14.604211,-4.80043 8.521549,-5.23275 20.251881,0.98361 27.894331,-6.91673 11.597201,-9.39418 6.728822,-25.44689 8.695305,-38.27727 0.659858,-25.47821 1.014789,-51.29643 2.488859,-76.54182 6.386623,-1.42178 13.490771,-3.26541 19.722808,-4.66345 1.691741,35.34664 1.394494,71.18915 3.660312,106.60652 1.785397,11.91418 14.103717,19.61795 25.684907,17.43614 9.25418,-2.03362 14.22105,9.78706 23.40545,7.14419 7.96058,-3.22535 16.60863,-3.74954 25.07744,-2.11349 10.92077,2.84203 20.24434,-4.00883 29.74134,-8.11905 5.17323,-0.31368 -7.70891,19.9341 -37.1942,13.8285 -8.38572,-1.77538 -1.72498,4.5304 1.78149,6.50177 5.7035,1.82539 10.29484,5.53692 1.28146,4.36364 -7.79832,-2.02865 -13.69423,-10.9508 -22.52438,-7.22163 -9.4421,1.90585 -14.69449,-10.11079 -24.20718,-7.40055 -7.54023,0.72798 -15.01955,-2.2548 -20.9383,-6.56285 0.30747,8.07734 8.10088,12.62979 15.54694,12.71497 9.14536,1.14309 16.40072,6.75126 23.9256,11.37751 5.91339,1.68101 13.23525,2.20294 18.21325,5.07946 -9.41331,4.133 -21.35742,2.13619 -29.36132,-4.65344 -7.2138,-5.35377 -16.79307,-5.4188 -25.1471,-5.75483 5.26739,4.6639 9.68268,10.54271 16.90857,12.23959 2.73981,1.32138 12.66553,8.55321 5.77975,8.64234 -7.47575,-4.95351 -18.36914,-3.57082 -23.25743,-12.26996 -4.616487,-5.2701 -13.008979,-6.29822 -16.449689,-12.55897 -6.137998,5.07674 -3.034526,14.22725 2.59911,18.61273 1.606656,3.12249 4.153269,10.90228 -0.01452,12.59333 z M 76.438358,181.86552 c -4.08249,-2.0506 2.029577,-31.81764 -1.217139,-46.36381 -5.520485,-8.61847 -16.949176,-3.15149 -24.143872,0.26362 -15.778864,7.74916 -37.064037,13.2715 -52.122914,1.11216 -5.2552695,-4.43699 -12.75419,0.36476 -19.008522,-0.19179 -7.651217,1.07726 -15.501368,0.3485 -22.001892,-4.14231 -5.353139,-0.47254 -14.388679,-0.20766 -13.758333,-7.94756 0.383445,-8.21194 10.686971,-12.9147 18.092971,-12.31182 6.7377,1.9302 12.89796,-0.98758 17.714826,-5.57322 7.320248,-4.86226 17.4301308,-5.02596 23.9961793,1.28105 4.7637595,3.12426 10.8053587,3.91323 15.5111767,0.18699 5.651729,-3.09254 10.736877,1.89384 13.788497,6.09825 5.027703,-0.12866 13.763698,-1.16857 14.073805,5.90915 0.405279,6.61405 -7.941714,6.64998 -11.969186,7.5963 4.901845,4.67606 13.407225,2.5689 19.001447,-0.59258 7.034533,-3.33854 15.247385,-3.74367 22.398396,-0.69442 1.162585,-8.15359 1.106573,-18.93957 -8.015065,-22.49631 -10.816642,-3.07767 -22.712826,0.30805 -33.535379,-3.74457 C 25.81653,97.325785 15.708976,102.93875 6.4020361,98.465168 -3.280242,95.179266 -8.796638,83.134836 -20.244076,84.762936 c -10.625879,2.58132 -21.413958,9.589198 -32.659816,5.142483 -9.707179,-1.102753 -17.494357,-12.109265 -12.596954,-21.209376 3.760067,-8.138708 14.109217,-7.132601 20.442001,-11.472202 4.930969,-4.857424 -2.40752,-13.371376 4.012107,-17.977963 7.872351,-9.409242 22.211425,-4.994253 31.671892,-11.075789 C -5.7378697,24.621785 -4.9802306,17.50778 1.553271,17.718404 6.8569394,18.018061 11.887853,16.05107 14.200703,10.910564 21.462757,1.754047 34.16767,1.6629371 44.612534,4.065334 54.572518,5.0318274 58.038159,-7.2155645 66.892397,-9.7381236 78.9628,-16.166971 93.607227,-14.67115 105.09495,-7.6858903 c 9.22927,5.7767563 21.45417,-2.6372727 29.91407,5.4616683 3.95901,4.2597558 7.03114,11.8276018 14.2856,10.0065029 8.81103,-1.7645713 22.17017,0.6879044 22.33824,11.8766111 1.60506,9.204708 14.42375,6.024585 19.55134,12.258605 7.6544,5.965967 5.70573,20.577728 -5.02834,21.545771 -5.08087,0.126326 -7.63242,7.038962 -1.85127,8.564711 3.94798,3.051118 7.52969,8.313987 12.87804,3.86531 7.22802,-3.259166 16.77319,1.474166 16.07133,10.031841 1.54948,3.912212 9.85265,-0.103278 11.82095,5.231135 4.84032,7.901906 -4.97741,14.576211 -12.15393,14.875842 -7.08668,1.529862 -13.52098,-3.360532 -18.99812,-6.360752 -16.05051,11.854965 -37.45857,7.674677 -54.73926,0.988956 -12.70304,-4.618961 -28.7389,-8.681201 -40.451073,0.271094 -9.074091,7.401214 -5.363864,19.869005 -6.227456,29.985215 5.666575,-1.53879 11.869149,-5.08942 18.399239,-4.1123 16.68303,-1.21464 31.70428,8.93347 44.02205,18.37987 -0.75339,6.73403 -2.1894,6.15252 -9.72489,1.11219 -13.0727,-9.13789 -30.67822,-18.17399 -46.429301,-10.32791 -8.693064,5.8915 -4.093384,17.97544 -5.007067,26.76839 -1.594155,8.00324 5.676013,-0.1387 9.394838,-0.32237 4.02061,-0.9047 10.20099,-6.93204 12.88458,-1.4912 -1.36464,4.74519 -9.05215,4.59312 -12.4352,8.29142 -5.71732,3.57128 -9.629711,10.14512 -8.790699,16.99509 -5.7371,2.7533 -12.151418,4.33009 -18.380263,5.65572 z M 6.627355,131.76385 c -5.3801104,1.4418 4.682936,4.68995 6.884577,5.09623 3.796671,1.34942 -2.181646,-9.04833 -6.884577,-5.09623 z m 22.489582,4.64572 c 9.068755,0.24023 1.719452,-4.40529 -2.186723,-6.80048 -2.528454,-2.18267 -12.479216,-1.37328 -6.678608,2.91598 2.302754,2.36268 5.392924,4.54452 8.865331,3.8845 z M 77.70748,101.55497 C 78.947318,95.333406 78.976505,86.868269 77.146412,80.0914 72.290634,68.926195 58.932308,64.810864 47.637769,66.971901 36.219192,67.288625 24.889329,63.281546 15.920481,56.269366 c -4.384606,-1.434719 -10.46796,5.104646 -5.151806,7.685731 5.886468,1.040923 12.474115,1.578506 16.617386,6.660297 5.929877,2.093399 15.867586,-0.522686 17.738154,7.773115 0.535992,6.101478 -6.154669,7.669908 -10.847916,7.899828 3.0107,10.064591 15.786383,10.342624 24.539299,9.848225 6.984532,-0.789954 13.35671,1.377033 18.891882,5.418408 z M 13.977846,93.621488 C 13.630735,90.718144 10.053324,86.518608 8.568985,83.083343 4.5478525,84.643833 -4.2335728,79.542845 -5.1047827,82.66884 0.32055803,87.740518 6.2503879,92.908685 13.977846,93.621488 Z m 14.383179,-0.541481 c 2.840805,-0.854058 -1.064204,-8.37252 -4.446281,-8.529558 -4.271088,-2.345993 -12.144497,-2.409018 -5.678554,3.315859 2.34676,3.159004 6.123964,5.337181 10.124835,5.213699 z M 170.82244,91.912971 c 6.03003,-0.165054 13.04547,-2.173585 17.64947,-5.382098 -5.67932,-4.727367 -15.10061,3.463918 -20.05189,-2.720872 1.43421,-4.235957 -0.57338,-7.903525 -5.5203,-6.838566 -5.41283,2.917693 -10.92811,7.342503 -16.70565,8.897611 7.03999,3.485444 16.39303,6.311412 24.62837,6.043925 z M 90.762231,87.290105 c 6.608048,-6.328114 16.108819,-7.021088 24.062999,-10.649299 5.84254,-4.964052 10.10536,-14.502305 19.32923,-12.87273 6.38868,0.836275 14.03116,-0.154839 16.33791,-7.183437 2.89516,-1.945478 11.65978,-7.634671 3.01301,-7.245002 -5.60274,1.925195 -9.27494,-5.319852 -14.46868,-3.563557 -5.46748,9.041379 -14.94103,15.791852 -25.87129,15.015508 -10.68364,-0.764698 -22.982251,6.056842 -22.636586,17.964035 0.306299,2.692948 -0.934408,6.229951 0.233407,8.534482 z m 45.775529,-5.478319 c 6.97366,-0.939226 15.67154,-2.882079 19.95285,-8.412305 -4.06334,-1.661072 -5.74795,-8.887812 -10.69243,-4.845592 -7.31517,2.529463 -18.20565,-1.712095 -21.64089,7.664448 -2.43493,5.352726 8.31526,5.870993 12.38047,5.593449 z M 83.448291,74.795995 C 86.197508,69.934202 89.5344,61.542175 82.685774,58.001932 73.510428,52.448798 60.282663,52.285036 54.960086,41.475258 c -2.352055,-8.371324 -4.245979,2.764156 -8.3674,3.699306 -6.060644,-0.593429 -4.703926,3.63791 -0.864841,6.199197 9.864777,10.084309 26.818254,8.273209 35.071286,20.460416 0.956658,0.722978 1.496786,2.871335 2.64916,2.961818 z M 44.727353,61.198827 c 7.684177,0.603348 -2.327068,-3.995519 -3.698201,-6.598251 -3.09509,-2.995948 -5.363609,-10.430977 -8.478782,-2.944876 -1.067233,3.555375 -12.379003,1.163265 -6.936007,4.318156 5.772134,3.277525 12.450634,5.352515 19.11299,5.224971 z m 49.561348,-2.639564 c 7.133519,-2.832836 16.413329,-5.9154 19.714939,-13.06407 -7.06566,-0.308949 -11.7079,-5.72734 -14.745249,-11.588588 -5.265101,-5.390469 -5.109983,4.438791 -7.642038,7.295236 -2.597162,4.166567 -8.696108,10.440023 -2.190712,14.23277 1.492284,1.129088 2.617614,3.753525 4.86306,3.124652 z m 23.170929,-3.671362 c 6.18346,-0.92872 13.87505,-4.860337 15.39039,-10.989461 -4.8728,2.018154 -12.2523,-1.031448 -14.24584,5.366757 -0.81171,1.458799 -6.15564,6.585758 -1.14455,5.622704 z M 77.21109,48.131774 c 6.265041,-2.054334 10.252003,-9.22135 11.891811,-15.340244 -4.872191,0.510603 -9.394596,5.583906 -15.0068,5.093616 -1.312654,2.304884 -0.06054,9.512413 3.114989,10.246628 z m -9.325456,-2.910417 c 1.96197,-3.444921 0.647749,-9.622557 -5.032778,-8.862519 -6.910947,-3.1943 -3.103237,4.700683 0.307765,6.488625 1.355876,0.940117 3.098692,2.060719 4.725013,2.373894 z M 192.10026,154.98034 c -11.8612,-0.52109 -24.13271,-4.47651 -33.73437,-10.9416 1.6999,-7.75606 2.58267,-4.60292 11.8848,-0.86165 13.2026,6.46984 29.53881,8.13183 42.61337,0.43683 6.97157,-0.26964 0.56382,6.96162 -3.12509,7.50156 -5.46549,2.51874 -11.61557,3.90231 -17.63871,3.86486 z"
       id="path1"
       sodipodi:nodetypes="cccccccccccccccccccccccccccccccccccccccccccccccccccccccccccccccccccccccccccccccccccccccccccccccccccccccccccccccccccccccccccccccccccccccccccccccccccccccccccccccccccccccccccccccccccccccc" /><path
       id="path2"
       style="fill:#2691dd;fill-opacity:1"
       d="m 45.019873,46.192152 c -0.2525,0.0073 -0.501942,0.03475 -0.731221,0.103869 0.521294,0.08387 1.013977,0.0462 1.481046,-0.08527 -0.241922,-0.01277 -0.497324,-0.0259 -0.749825,-0.0186 z m 163.402947,3.508829 c -2.97275,-0.09051 -5.29692,0.94179 -4.79919,4.726844 4.19075,4.139 11.55606,2.690605 16.37419,6.437849 17.18382,7.30188 21.70433,33.044592 7.02748,45.082006 -16.28234,14.1731 -39.67068,12.11029 -59.28579,7.70444 -24.15586,-4.89851 -49.522,-18.073248 -74.064209,-7.79384 -0.03843,-0.0501 -0.07567,-0.10165 -0.111104,-0.154 -0.128347,2.82157 0.01847,5.66674 0.09819,8.50543 6.530103,-4.53527 14.903293,-5.19151 22.658053,-4.95939 25.80361,2.38839 49.80129,15.28376 76.04807,14.81563 20.33299,1.21504 44.60928,-8.3294 49.95974,-29.854507 4.8932,-18.084957 -7.16877,-37.890217 -25.21501,-42.500765 -2.09643,-0.705622 -5.71767,-1.919189 -8.69042,-2.009697 z m -282.334188,34.41392 c -15.386238,25.349939 -23.541107,54.982469 -24.926644,84.543159 1.007494,4.81891 -3.023768,13.82254 3.706233,15.20476 1.895694,0.22923 3.219399,-1.1664 3.85868,-2.77813 -0.661263,-30.10734 6.155332,-60.41143 20.351729,-87.017425 4.786415,-4.211074 -0.303904,-6.961043 -2.989998,-9.952364 z M 250.52258,100.79554 c -4.01589,0.16611 -3.23113,7.18233 -1.05782,10.15907 5.1166,12.86585 -6.84196,24.33153 -17.98908,28.50213 -5.25665,-0.0417 -9.15439,8.4401 -2.38229,8.64289 6.78128,-1.73026 13.31179,-5.86044 18.77147,-10.30222 10.89974,-8.43204 13.38645,-26.10712 4.6824,-36.62205 -0.7796,-0.28762 -1.45099,-0.40355 -2.02468,-0.37982 z m -89.11911,26.17721 c -0.2059,-0.005 -0.42221,-0.001 -0.64906,0.0108 -4.65752,2.38133 -15.80173,37.3021 -66.03111,54.72276 -25.886133,9.55146 -53.68229,7.0263 -80.689132,7.14788 -26.161131,0.32531 -55.935936,5.52125 -72.348556,28.05876 -10.527643,14.07512 -12.216437,32.5562 -9.865547,49.28588 -10.20531,-16.29309 -11.745397,-38.15084 -2.268596,-55.14599 13.941348,-22.54609 42.033749,-29.35747 66.7644005,-31.57068 21.3113935,-2.45746 45.9806205,2.31767 63.6829345,-12.59923 4.069046,-2.15118 7.86673,-10.51033 0.701249,-10.53683 -5.782196,5.53477 -12.202872,11.07505 -20.510892,12.38219 -23.740128,4.37421 -48.5466844,0.8749 -71.92636,7.98453 -23.600709,5.56094 -46.980668,22.29951 -51.222196,47.52164 -5.414492,25.86277 8.3406,50.79592 24.677047,69.81021 4.960919,4.21944 8.332806,11.95153 14.732951,13.51236 2.694323,-0.11494 3.615793,-3.02844 3.213757,-5.30717 -9.183797,-9.63325 -16.545142,-21.29385 -19.573999,-34.38808 -5.532784,-21.15687 1.092643,-46.16767 20.235457,-58.25846 25.639964,-16.76807 57.698551,-12.86322 86.786434,-13.04417 103.221088,-6.97944 111.955408,-58.5176 117.353168,-62.06306 1.0116,-2.01109 5.16722,-7.33497 -3.06195,-7.52339 z m 99.54017,10.29188 c -0.66756,-0.0205 -1.44063,0.13071 -2.33784,0.49248 -10.18063,12.39537 -24.33786,21.5606 -39.95983,25.6191 -18.69755,5.5801 -38.7099,2.55938 -56.32266,-5.07824 -7.62655,0.7652 -3.19189,9.68525 2.78949,9.22683 30.81619,13.12182 68.71753,5.65407 92.67652,-17.57464 9.2106,52.13653 -7.6969,108.07239 -43.56169,147.00705 -3.59355,2.65048 -9.86921,10.48798 -2.12493,11.50782 0.93745,0.17647 1.60916,-0.005 2.27686,-0.71107 41.5939,-39.96146 60.73103,-101.16003 51.6785,-157.91439 -0.9256,-3.86092 -0.44148,-12.43143 -5.11442,-12.57494 z M 0.69648067,156.19371 c -9.64174017,0.2285 -19.50320367,1.83474 -28.99409567,3.35638 -25.544043,3.8566 -52.53357,16.35481 -63.254537,41.36905 -1.846608,4.29081 -7.617475,13.15818 0.0016,14.67094 1.013404,0.1952 1.788027,-0.82132 2.716113,-1.04438 3.892285,-9.15794 7.400592,-18.86106 14.730367,-26.001 19.624393,-19.62092 49.068219,-23.07441 75.4475916,-25.07237 4.4431121,0.9108 14.2145994,-1.14836 8.8997154,-6.99389 -3.143246,-0.28415 -6.332791,-0.3609 -9.54670433,-0.28473 z M 74.8811,181.93115 c 0.0029,0.0709 0.0057,0.142 0.0088,0.21291 0.05437,-0.004 0.108927,-0.008 0.163297,-0.0119 -0.05977,-0.0645 -0.117152,-0.13166 -0.172082,-0.20102 z m 11.429276,153.61182 c -0.02491,0.0259 -0.04942,0.0522 -0.0739,0.0785 0.04592,0.003 0.09226,0.007 0.13901,0.0129 -0.02176,-0.0304 -0.04359,-0.0609 -0.06511,-0.0915 z"
       sodipodi:nodetypes="sccsscccccccccccscsccccssccccsscccccccccccccccccccsssccccccccsscccccccsccccccccsccc" /></g></svg>
